<?xml version="1.0" encoding="UTF-8" standalone="no"?>
<!-- Generator: Adobe Illustrator 22.0.1, SVG Export Plug-In . SVG Version: 6.00 Build 0)  -->

<svg
   xmlns:dc="http://purl.org/dc/elements/1.1/"
   xmlns:cc="http://creativecommons.org/ns#"
   xmlns:rdf="http://www.w3.org/1999/02/22-rdf-syntax-ns#"
   xmlns:svg="http://www.w3.org/2000/svg"
   xmlns="http://www.w3.org/2000/svg"
   xmlns:sodipodi="http://sodipodi.sourceforge.net/DTD/sodipodi-0.dtd"
   xmlns:inkscape="http://www.inkscape.org/namespaces/inkscape"
   version="1.1"
   id="logo-devparana"
   x="0px"
   y="0px"
   viewBox="0 0 300 300"
   style="enable-background:new 0 0 300 300;"
   xml:space="preserve"
   sodipodi:docname="logo-devparana-na-estrada.svg"
   inkscape:version="0.92.4 (5da689c313, 2019-01-14)"
   inkscape:export-filename="/home/rivendel/devpr-na-estrada.png"
   inkscape:export-xdpi="97.260002"
   inkscape:export-ydpi="97.260002"><metadata
   id="metadata826"><rdf:RDF><cc:Work
       rdf:about=""><dc:format>image/svg+xml</dc:format><dc:type
         rdf:resource="http://purl.org/dc/dcmitype/StillImage" /><dc:title /></cc:Work></rdf:RDF></metadata><defs
   id="defs824">
      
      
    <clipPath
   clipPathUnits="userSpaceOnUse"
   id="clipPath1570"><path
     style="opacity:0.52999998;fill:#15a04b;stroke-width:1.00653088"
     inkscape:connector-curvature="0"
     d="M 171.37784,276.22265 47.27259,152.1174 c -9.662696,-9.6627 -9.662696,-25.56589 0,-35.22858 L 171.37784,-7.2164346 c 9.6627,-9.6626964 25.56588,-9.6626964 35.22858,0 L 330.71167,116.88882 c 9.6627,9.66269 9.6627,25.56588 0,35.22858 L 206.60642,276.22265 c -2.41568,2.41567 -5.23396,4.22743 -8.1529,5.43527 -0.10065,0 -18.62082,0.10065 -18.62082,0.10065 -3.12025,-1.20784 -6.03919,-3.12025 -8.45486,-5.53592 z"
     class="st0"
     id="path1572" /></clipPath><clipPath
   clipPathUnits="userSpaceOnUse"
   id="clipPath1612"><path
     style="fill:#15a04b"
     inkscape:connector-curvature="0"
     d="M 132.5,290.8 9.199999,167.5 c -9.6000001,-9.6 -9.6000001,-25.4 0,-35 L 132.5,9.2 c 9.6,-9.6 25.4,-9.6 35,0 l 123.3,123.3 c 9.6,9.6 9.6,25.4 0,35 L 167.5,290.8 c -2.4,2.4 -5.2,4.2 -8.1,5.4 -0.1,0 -18.5,0.1 -18.5,0.1 -3.1,-1.2 -6,-3.1 -8.4,-5.5 z"
     class="st0"
     id="path1614" /></clipPath></defs><sodipodi:namedview
   pagecolor="#ffffff"
   bordercolor="#666666"
   borderopacity="1"
   objecttolerance="10"
   gridtolerance="10"
   guidetolerance="10"
   inkscape:pageopacity="0"
   inkscape:pageshadow="2"
   inkscape:window-width="1366"
   inkscape:window-height="731"
   id="namedview822"
   showgrid="false"
   inkscape:zoom="1.8"
   inkscape:cx="149.36583"
   inkscape:cy="157.92005"
   inkscape:window-x="0"
   inkscape:window-y="0"
   inkscape:window-maximized="1"
   inkscape:current-layer="logo-devparana" />
    <style
   type="text/css"
   id="style815">
      .st0 {
        fill: #15A04B;
      }

      .st1 {
        fill: #FFFFFF;
      }
    </style>
    
  <g
   id="g889"
   transform="matrix(0.79911449,0,0,0.79911449,35.241094,3.1795488)"><path
     inkscape:export-ydpi="97.859329"
     inkscape:export-xdpi="97.859329"
     inkscape:export-filename="/home/rivendel/g1549.png"
     id="path"
     class="st0"
     d="M 132.5,290.8 9.2,167.5 c -9.6,-9.6 -9.6,-25.4 0,-35 L 132.5,9.2 c 9.6,-9.6 25.4,-9.6 35,0 l 123.3,123.3 c 9.6,9.6 9.6,25.4 0,35 L 167.5,290.8 c -2.4,2.4 -5.2,4.2 -8.1,5.4 -0.1,0 -18.5,0.1 -18.5,0.1 -3.1,-1.2 -6,-3.1 -8.4,-5.5 z"
     inkscape:connector-curvature="0"
     style="fill:#158d4b;fill-opacity:1" /><ellipse
     inkscape:export-ydpi="97.859329"
     inkscape:export-xdpi="97.859329"
     inkscape:export-filename="/home/rivendel/g1549.png"
     clip-path="url(#clipPath1612)"
     ry="103.05556"
     rx="166.74739"
     cy="186.38889"
     cx="147.85851"
     id="path1574"
     style="opacity:1;fill:#01a04b;fill-opacity:1;fill-rule:nonzero" /><path
     inkscape:export-ydpi="97.859329"
     inkscape:export-xdpi="97.859329"
     inkscape:export-filename="/home/rivendel/g1549.png"
     id="branch"
     class="st1"
     d="m 203.87678,76.384751 c -3.03382,0 -5.54325,2.509444 -5.54325,5.543268 0,2.434531 1.61053,4.60689 3.89525,5.318519 v 10.299985 c 0,5.842907 -3.67053,9.063977 -11.91052,10.374887 -1.12363,-2.17235 -3.48327,-3.55817 -7.19126,-4.11999 h -0.0375 c -2.92145,-0.37454 -5.13126,-1.236 -6.74181,-2.5469 v -2.734177 c 1.57309,-1.38582 3.78291,-2.24726 6.81672,-2.62182 h 0.0375 c 5.20617,-0.78655 7.86544,-3.258528 7.86544,-7.266162 v -6.03016 c 2.39709,-0.599276 4.23235,-2.771645 4.23235,-5.393444 0,-3.071283 -2.50944,-5.580727 -5.54327,-5.580727 -3.0338,0 -5.54325,2.509444 -5.54325,5.618175 0,2.659268 1.91017,4.906534 4.38217,5.430902 v 5.992713 c 0,2.771625 -1.7229,4.194895 -5.76798,4.831613 -2.62182,0.29965 -4.75672,0.97382 -6.44217,2.02255 V 77.321111 c 2.02253,-1.198539 3.37089,-3.370898 3.37089,-5.842894 0,-3.745454 -3.03381,-6.81672 -6.81671,-6.81672 -3.74544,0 -6.81671,3.033813 -6.81671,6.81672 0,2.509455 1.34835,4.681803 3.37089,5.842894 v 15.543604 c -1.53562,-0.74909 -3.37089,-1.27346 -5.54325,-1.53564 -5.05636,-0.74908 -5.69308,-2.921445 -5.69308,-4.756719 v -4.232334 c 2.43453,-0.561828 4.30725,-2.771645 4.30725,-5.430903 0,-3.033812 -2.50944,-5.543268 -5.54325,-5.543268 -3.03383,0 -5.54327,2.471997 -5.54327,5.505809 0,2.659269 1.87272,4.831628 4.30727,5.430903 v 4.232346 c 0,4.007632 2.62181,6.442166 7.82798,7.191254 2.50946,0.37455 4.41964,0.93637 5.88035,1.94763 v 8.726897 c -3.48326,-2.20981 -7.86542,-3.67054 -13.33379,-4.34472 -8.42725,-1.273447 -12.17271,-4.457087 -12.17271,-10.412342 v -2.359631 c 2.20982,-0.749088 3.78291,-2.809082 3.78291,-5.281072 0,-3.033812 -2.50945,-5.543268 -5.54326,-5.543268 -3.03381,0 -5.54327,2.509456 -5.54327,5.543268 0,2.434531 1.57309,4.531984 3.7829,5.281072 v 2.359631 c 0,4.344715 1.61054,7.753085 4.83164,10.112715 2.43454,1.835257 5.84288,3.033807 10.37488,3.707977 h 0.0375 c 6.06763,0.78655 10.56216,2.50946 13.8207,5.20619 v 41.64938 c 2.20981,0.86145 4.71927,0.824 6.92907,-0.0375 v -18.61484 c 1.5731,-1.34836 3.74546,-2.17236 6.74181,-2.5469 h 0.0375 c 5.20618,-0.78654 7.86544,-3.25855 7.86544,-7.26617 v -0.89891 c 1.61054,-0.52437 2.80909,-2.05999 2.80909,-3.82035 0,-1.76037 -1.19855,-3.33346 -2.80909,-3.82037 v -1.94763 c 4.26981,-0.71163 7.52835,-1.91018 9.88798,-3.67053 3.22109,-2.35965 4.83163,-5.76799 4.83163,-10.112717 V 87.246572 c 2.02255,-0.786548 3.55818,-2.846541 3.55818,-5.281083 0,-1.460718 -0.56181,-2.84653 -1.57309,-3.932715 -1.04873,-1.048726 -2.43454,-1.648001 -3.93272,-1.648001 z m -17.67852,0.861454 c 0,-1.947628 1.57309,-3.520723 3.48327,-3.520723 1.94764,0 3.48326,1.573095 3.48326,3.520723 0,1.947639 -1.57307,3.483275 -3.48326,3.483275 -1.87271,0 -3.48327,-1.610543 -3.48327,-3.483275 z m -29.25195,3.108719 c -1.91018,0 -3.48326,-1.573083 -3.48326,-3.483264 0,-1.947638 1.57308,-3.483263 3.48326,-3.483263 1.91018,0 3.48327,1.573083 3.48327,3.483263 0,1.910181 -1.61054,3.483264 -3.48327,3.483264 z m -14.79452,5.056352 c -1.91018,0 -3.48325,-1.535636 -3.48325,-3.483257 0,-1.947639 1.57307,-3.483275 3.48325,-3.483275 1.91019,0 3.48326,1.573095 3.48326,3.483275 0,1.910173 -1.61054,3.483257 -3.48326,3.483257 z m 30.71268,-9.251256 c -2.62182,0 -4.75672,-2.1349 -4.75672,-4.756721 0,-2.659261 2.1349,-4.794171 4.75672,-4.794171 2.62181,0 4.75671,2.13491 4.75671,4.756723 0,2.621821 -2.1349,4.794169 -4.75671,4.794169 z m 3.44581,28.09085 c 1.72291,0.97382 3.82036,1.648 6.40472,1.9851 2.39709,0.37453 4.00763,1.01127 4.86909,2.09744 -4.49453,0.82399 -8.27745,2.20982 -11.27381,4.1949 z m 12.21016,9.06399 c -1.61055,0.52436 -2.80909,2.05999 -2.80909,3.82035 0,1.83527 1.19854,3.33346 2.80909,3.82037 v 0.89889 c -0.0375,2.77164 -1.7229,4.19491 -5.76799,4.83164 -2.58436,0.29963 -4.6818,0.97381 -6.36725,1.98509 v -11.76071 c 2.92144,-2.58436 6.89162,-4.26981 12.13524,-5.16872 z m 15.35634,-27.866125 c -1.94764,0 -3.48327,-1.573095 -3.48327,-3.483268 0,-1.91018 1.57309,-3.483264 3.48327,-3.483264 0.93636,0 1.83527,0.374544 2.50945,1.011278 0.67418,0.674171 0.97382,1.535625 0.97382,2.434538 0,1.947621 -1.57309,3.520716 -3.48327,3.520716 z"
     inkscape:connector-curvature="0"
     style="fill:#ffffff;stroke-width:0.3745448" /><g
     inkscape:export-ydpi="97.859329"
     inkscape:export-xdpi="97.859329"
     inkscape:export-filename="/home/rivendel/g1549.png"
     clip-path="url(#clipPath1570)"
     transform="matrix(0.99351153,0,0,0.99351153,-37.765859,16.369612)"
     id="g1549"><path
       sodipodi:nodetypes="sssccssscscss"
       inkscape:connector-curvature="0"
       style="fill:#ffffff;stroke-width:0.77728283"
       d="m 273.24166,156.92773 c 0,-29.37453 -129.48125,-33.7552 -129.48125,-45.15717 0,-7.40778 36.99431,-9.98501 36.99431,-23.126237 0,-9.341884 -32.54473,-9.819717 -40.15806,-17.395251 l -14.25651,3.091949 c -12.07143,5.134357 15.07554,9.618061 15.07554,11.984259 0,7.665969 -84.410158,6.159368 -84.410158,27.82849 0,23.70602 84.410158,21.38698 84.410158,37.62027 0,23.83279 -127.310048,10.36071 -144.0521774,95.47416 35.8844734,33.74205 84.3773234,54.49052 137.7995774,54.49052 41.19761,0 79.47762,-12.32648 111.30179,-33.43749 -36.27055,-19.12745 -51.90207,-39.26446 -51.90207,-53.65566 0,-21.12878 78.67885,-32.9814 78.67885,-57.71784 z"
       id="path844" /><path
       inkscape:connector-curvature="0"
       style="fill:#15a04b;fill-opacity:1;stroke-width:0.77728283"
       d="m 199.31167,141.22937 c -6.50115,-2.25103 -13.03589,-4.19979 -19.54877,-6.02565 -13.02573,-3.63857 -25.94517,-6.7376 -38.37535,-9.92242 -6.20961,-1.60168 -12.31059,-3.20259 -18.16147,-5.05473 -2.91527,-0.93534 -5.7907,-1.92635 -8.4332,-3.17632 -1.29742,-0.62381 -2.60811,-1.34736 -3.43112,-2.22086 -0.83081,-0.88201 -0.51897,-1.33576 0.62918,-2.20773 2.23765,-1.37828 5.19434,-2.14048 7.8392,-3.11293 2.71206,-0.88896 5.38193,-1.76555 8.00803,-2.62593 5.2811,-1.6728 10.384,-3.28763 15.28213,-4.83906 4.89892,-1.5754 9.59462,-3.11757 13.92064,-5.069424 2.1423,-1.011879 4.25568,-2.031492 5.98686,-3.73444 0.83316,-0.803157 1.62647,-2.162892 1.26304,-3.565913 -0.36187,-1.345809 -1.30993,-2.174481 -2.17122,-2.842372 -1.78981,-1.319528 -3.69373,-2.12887 -5.5273,-2.868646 -0.90585,-0.40738 -13.05543,-3.932328 -15.83784,-4.997539 -2.73943,-1.11159 -5.12792,-2.32213 -6.82159,-3.716641 -0.89022,-0.732828 -1.48422,-1.716097 -1.78514,-2.46747 h -1.32398 c 0.15866,0.594447 0.45879,1.335773 0.85114,1.91785 1.40918,2.25797 3.92743,3.708154 6.67622,5.048551 2.77459,1.304857 6.00485,2.532393 9.48832,3.582147 0.43847,0.153064 9.17023,3.029439 10.95065,4.007305 1.69368,0.926071 3.68122,2.476735 2.67222,3.982571 -1.0184,1.563028 -3.19587,2.679274 -5.24516,3.656354 -4.24864,1.929441 -9.01,3.4314 -13.96831,4.956559 -9.95181,3.022488 -20.89776,5.700208 -32.26188,9.656498 -1.43497,0.56507 -2.91058,1.12629 -4.24005,2.41412 -0.64635,0.60219 -1.23801,1.88152 -0.82534,2.97532 0.35875,1.03971 1.03325,1.67513 1.66633,2.22938 2.63781,2.07323 5.56716,3.19333 8.50197,4.39381 5.90245,2.28427 12.0433,4.14104 18.28261,6.02334 12.48802,3.72051 25.43638,7.32275 38.41911,11.46843 6.49178,2.07013 12.98823,4.26857 19.41513,6.70511 3.12006,1.16648 6.31278,2.59114 8.2292,4.65974 1.94379,1.94954 0.73859,4.39535 -1.61629,6.70975 -4.68789,4.4286 -10.93189,7.71854 -16.89218,10.98297 -6.05488,3.22194 -12.21369,6.26992 -18.30607,9.35657 -12.18398,6.17174 -24.18819,12.42078 -35.1076,19.80847 -5.43976,3.71124 -10.63724,7.67757 -15.19146,12.27392 -4.64648,4.59633 -8.27142,10.14658 -10.44185,16.06709 -4.4206,12.00877 -2.595621,24.37621 0.68622,34.3852 3.31622,10.1744 8.11275,18.68685 12.70216,25.90292 3.97978,6.12149 7.84702,11.269 11.34222,15.58551 2.80586,0.11671 5.61952,0.2033 8.45431,0.20484 -0.5815,-0.66093 -1.1497,-1.30253 -1.7648,-2.01988 -3.87428,-4.50821 -8.35504,-10.17827 -12.94289,-17.02254 -4.5097,-6.86745 -9.19367,-14.95704 -12.40985,-24.39245 -3.20681,-9.32178 -4.89737,-20.40447 -1.17314,-30.92442 3.48894,-10.62971 12.98665,-18.96357 23.40816,-26.27009 10.49423,-7.3189 22.2757,-13.67693 34.3354,-19.99324 6.03454,-3.16395 12.16132,-6.30161 18.24744,-9.64874 6.03611,-3.44842 12.23792,-6.70591 17.58232,-11.85883 1.2857,-1.33884 2.5753,-2.86246 3.22948,-5.00757 0.74874,-2.18145 -0.13287,-4.87694 -1.58895,-6.3387 -2.89339,-2.96375 -6.36046,-4.22299 -9.64699,-5.46136 -6.53005,-2.37006 -13.1117,-4.4943 -19.66521,-6.48325 -2.55185,-0.77535 -5.06695,-1.45791 -7.60942,-2.19537 4.61598,1.25923 9.23275,2.50534 13.87844,3.87126 6.44564,1.90237 12.91396,3.92922 19.27443,6.22893 3.13645,1.13401 6.3073,2.3693 8.20341,4.45025 1.98364,1.95417 1.23724,4.55537 -0.72999,7.05375 -3.98683,4.86844 -9.87677,8.61601 -15.49395,12.2113 -5.72113,3.56822 -11.62203,6.87596 -17.49087,10.14503 -11.74866,6.53196 -23.46369,12.80652 -34.38072,19.76983 -5.43744,3.48938 -10.73182,7.18206 -15.46973,11.35325 -4.85592,4.34047 -8.81696,9.57069 -11.09915,15.48037 -4.63006,12.05129 -1.58192,24.44734 2.59092,33.92681 4.36353,9.65031 9.94711,17.52345 15.22117,24.11803 5.30613,6.58994 10.38089,11.92296 14.68034,16.17763 0.86286,0.85419 1.67022,1.63338 2.46822,2.40176 2.91605,-0.16466 5.8071,-0.40815 8.68877,-0.69495 -1.92502,-1.71377 -4.15095,-3.74061 -6.68638,-6.18565 -4.23848,-4.0761 -9.23744,-9.1865 -14.43414,-15.45796 -5.16777,-6.26682 -10.59268,-13.738 -14.76473,-22.63074 -4.01809,-8.78996 -6.68872,-19.63997 -2.90121,-29.85999 3.59212,-10.30427 13.76823,-17.77622 24.26713,-24.77586 10.59661,-6.9749 22.16861,-13.39478 33.8516,-20.10687 5.8415,-3.36415 11.73457,-6.77623 17.51431,-10.49597 5.71021,-3.81637 11.60954,-7.52453 16.24583,-13.29352 1.10907,-1.47414 2.12276,-3.21883 2.45572,-5.36627 0.35171,-2.19227 -0.60417,-4.56387 -2.03522,-5.99472 -2.84572,-2.93823 -6.40815,-4.05214 -9.60947,-5.21551 z m -91.45293,-25.51024 c -1.11452,-0.9771 -1.52485,-1.64498 -0.71748,-2.43191 0.81986,-0.8449 2.19232,-1.48495 3.51083,-1.99978 0.0188,-0.007 0.0376,-0.0124 0.0564,-0.0193 -0.60416,0.4352 -1.23881,0.94926 -1.60067,1.89389 -0.40094,1.1626 0.21962,2.32676 0.79642,2.93512 1.21927,1.30176 2.6128,2.0168 4.0009,2.72952 0.61665,0.30224 1.25677,0.53878 1.88358,0.81166 -2.83554,-1.09459 -5.7524,-2.23942 -7.92986,-3.91918 z"
       id="path856" /></g></g><g
   id="g903"
   transform="matrix(0.85995266,0,0,0.85995266,26.620176,65.922913)"
   style="fill:#1a1a1a"><text
   id="text893"
   y="243.88889"
   x="10.555556"
   style="font-style:normal;font-weight:normal;font-size:40px;line-height:1.25;font-family:sans-serif;letter-spacing:0px;word-spacing:0px;fill:#1a1a1a;fill-opacity:1;stroke:none"
   xml:space="preserve"><tspan
     style="font-style:normal;font-variant:normal;font-weight:bold;font-stretch:normal;font-family:'DejaVu Sans';-inkscape-font-specification:'DejaVu Sans Bold';fill:#1a1a1a"
     y="243.88889"
     x="10.555556"
     id="tspan891"
     sodipodi:role="line">DEVPARANÁ</tspan></text>

<text
   id="text897"
   y="264.66806"
   x="156.23257"
   style="font-style:normal;font-weight:normal;font-size:24.20750237px;line-height:1.25;font-family:sans-serif;letter-spacing:0px;word-spacing:0px;fill:#1a1a1a;fill-opacity:1;stroke:none;stroke-width:0.60518754"
   xml:space="preserve"><tspan
     style="font-style:italic;font-variant:normal;font-weight:normal;font-stretch:normal;font-family:sans-serif;-inkscape-font-specification:'sans-serif Italic';stroke-width:0.60518754;fill:#1a1a1a"
     y="264.66806"
     x="156.23257"
     id="tspan895"
     sodipodi:role="line">na estrada</tspan></text>

</g></svg>